<?xml version="1.0" encoding="UTF-8" standalone="no"?>
<svg
   viewBox="0 0 177.06 54.15"
   version="1.1"
   id="svg28"
   sodipodi:docname="uk-open-black.svg"
   inkscape:version="1.2.2 (732a01da63, 2022-12-09)"
   xmlns:inkscape="http://www.inkscape.org/namespaces/inkscape"
   xmlns:sodipodi="http://sodipodi.sourceforge.net/DTD/sodipodi-0.dtd"
   xmlns="http://www.w3.org/2000/svg"
   xmlns:svg="http://www.w3.org/2000/svg">
  <sodipodi:namedview
     id="namedview30"
     pagecolor="#b218af"
     bordercolor="#000000"
     borderopacity="0.25"
     inkscape:showpageshadow="2"
     inkscape:pageopacity="0"
     inkscape:pagecheckerboard="0"
     inkscape:deskcolor="#d1d1d1"
     showgrid="false"
     inkscape:zoom="9.2228624"
     inkscape:cx="88.638425"
     inkscape:cy="27.106552"
     inkscape:window-width="1920"
     inkscape:window-height="974"
     inkscape:window-x="-11"
     inkscape:window-y="-11"
     inkscape:window-maximized="1"
     inkscape:current-layer="Layer_1-2" />
  <defs
     id="defs4">
    <style
       id="style2">.cls-1{opacity:0;}.cls-2{fill:#fff;}.cls-3{fill:#c8102e;}.cls-4{fill:#1c2e99;}</style>
  </defs>
  <g
     id="Layer_2"
     data-name="Layer 2">
    <g
       id="Layer_1-2"
       data-name="Layer 1">
      <g
         class="cls-1"
         id="g8">
        <rect
           class="cls-2"
           width="177.06"
           height="54.15"
           id="rect6" />
      </g>
      <path
         class="cls-3"
         d="M150.63,43.15H18.84L26.43,11H158.22l-.1.39Zm-131-.65H150.12l7.28-30.85H26.94Z"
         id="path10" />
      <path
         class="cls-2"
         d="M89,24.88a16,16,0,0,1-2.72,8.67c-2.14,3.13-5.49,4.7-9.89,4.7-6.37,0-10.22-3.55-10.22-9.46a15.57,15.57,0,0,1,3.35-9.69,11.66,11.66,0,0,1,9.14-3.88C85.26,15.22,89,18.71,89,24.88ZM73.14,22.19a13.13,13.13,0,0,0-1.84,6.63c0,3.39,1.94,5.49,5.09,5.49a6.46,6.46,0,0,0,5.92-3.48,13.42,13.42,0,0,0,1.51-5.95c0-3.78-1.74-5.71-5.16-5.71A6.15,6.15,0,0,0,73.14,22.19Z"
         id="path12"
         style="fill:#000000;fill-opacity:1" />
      <path
         class="cls-2"
         d="M93.26,37.69H88.34L93,15.78h6.9c3.71,0,5.49.4,6.73,1.45a5.5,5.5,0,0,1,1.78,4.33,9.26,9.26,0,0,1-2.76,6.57c-1.64,1.48-3.78,2.11-7.16,2.11H94.84ZM98.16,26a5.51,5.51,0,0,0,3.78-1,3.45,3.45,0,0,0,1.28-2.7c0-1.71-1-2.36-3.39-2.36H97l-1.25,6Z"
         id="path14"
         style="fill:#000000;fill-opacity:1" />
      <path
         class="cls-2"
         d="M126.84,20h-11.4l-.79,3.84h10.48L124.21,28H113.73l-1.15,5.45h11.86l-.89,4.2H106.77l4.66-21.91h16.29Z"
         id="path16"
         style="fill:#000000;fill-opacity:1" />
      <path
         class="cls-2"
         d="M139.05,37.69l-4.41-12a17.61,17.61,0,0,1-.69-2.36,19.28,19.28,0,0,1-.36,2.79l-2.43,11.59h-4.93l4.67-21.91h4.93l4,10.65a33.89,33.89,0,0,1,1.21,3.64,3.2,3.2,0,0,0,.1-.62c.16-1.05.23-1.51.53-3L144,15.78h4.93l-4.66,21.91Z"
         id="path18"
         style="fill:#000000;fill-opacity:1" />
      <path
         class="cls-2"
         d="M66.14,15.78h-6.4l-8.83,8.47h0l-3.47,3.32L50,15.78H45L42.42,28c-1,4.63-2.33,6.17-5.35,6.17-2,0-3.15-1.05-3.15-2.82a9.45,9.45,0,0,1,.26-1.94l2.89-13.67H32.14L29.25,29.45a14,14,0,0,0-.36,2.89,5.36,5.36,0,0,0,2.53,4.76A11.09,11.09,0,0,0,37,38.25c3.08,0,5.35-.67,6.91-2h0l.06-.06.09-.08,8.39-7.72,4.61,9.34H62.6L56.1,25Z"
         id="path20"
         style="fill:#000000;fill-opacity:1" />
      <polygon
         class="cls-3"
         points="49.52 23.6 57.73 15.83 51.03 15.83 49.52 23.6"
         id="polygon22" />
      <polygon
         class="cls-4"
         points="51.96 30.8 55.2 37.69 44.69 37.69 51.96 30.8"
         id="polygon24" />
    </g>
  </g>
</svg>
